<?xml version="1.0" encoding="utf-8"?>
<!-- Generator: Adobe Illustrator 16.0.3, SVG Export Plug-In . SVG Version: 6.00 Build 0)  -->
<!DOCTYPE svg PUBLIC "-//W3C//DTD SVG 1.1//EN" "http://www.w3.org/Graphics/SVG/1.1/DTD/svg11.dtd">
<svg version="1.1" id="Capa_1" xmlns="http://www.w3.org/2000/svg" xmlns:xlink="http://www.w3.org/1999/xlink" x="0px" y="0px"
	 width="595.28px" height="841.89px" viewBox="0 0 595.28 841.89" enable-background="new 0 0 595.28 841.89" xml:space="preserve">
<g>
	<path fill-rule="evenodd" clip-rule="evenodd" d="M463.124,469.388l0.209,0.256l-0.184,0.274c-2.725,1.066-5.647,1.458-8.392,2.484
		c-0.482,0.073-0.962,0.089-1.447,0.063c-2.858,0.094-5.824,0.379-6.488-3.548c-1.192-16.919-1.652-33.879-5.058-50.604
		c-10.438-51.26-54.378-91.38-106.495-96.948c-9.827-1.05-9.334-1.021-9.938,9.12c-1.041,17.47-0.11,34.975-1.111,52.399
		c-0.953,16.597-0.332,33.271-2.608,49.813c-0.797,5.785,0.616,11.614,1.713,17.332c1.067,5.565,2.325,11.094,2.115,16.806
		c-0.111,3.047,1.078,5.318,3.261,7.466c6.048,5.948,6.26,12.471,0.617,18.969c-2.002,2.306-2.896,4.737-2.88,7.703
		c0.032,5.995,0.116,11.994-0.031,17.985c-0.09,3.669,1.128,5.336,5.07,5.642c8.241,0.639,15.946,3.288,23.019,7.644
		c1.845,1.137,3.679,2.303,5.055,4.025c1.696,2.124,2.151,4.506,1.116,7.027c-0.967,2.355-3.125,2.86-5.359,2.935
		c-6.826,0.226-13.655,0.07-20.483,0.095c-8.377,0.03-8.298,0.018-8.401,8.646c-0.137,11.316,0.471,22.641-0.346,33.947
		c-2.691,4.652-0.361,10.114-2.367,14.886c-0.306,1.261-0.19,2.561-0.407,3.825c-0.701,4.098-1.675,4.563-5.835,2.804
		c-2.152-2.325-1.848-5.244-1.856-8.049c-0.023-7.475-1.003-14.288-7.064-19.935c-4.308-4.012-5.659-10.151-6.756-15.883
		c-1.058-5.534-3.71-9.383-8.891-11.739c-5.774-2.627-9.944-7.142-13.421-12.368c-3.488-5.243-3.662-5.306-9.747-3.438
		c-7.486,2.296-14.76,5.198-22.09,7.937c-1.558,0.582-3.071,1.304-4.721,1.611c-1.584,0.296-3.047,0.058-3.931-1.441
		c-0.992-1.684,0.086-2.843,1.245-3.858c1.634-1.434,3.435-2.675,5.403-3.574c14.501-6.627,29.538-11.258,45.57-12.23
		c5.976-0.363,11.915-1.326,17.93-1.007c3.194,0.169,4.488-1.424,4.454-4.533c-0.055-4.995-0.013-9.993-0.018-14.989
		c-0.002-2.647-0.975-4.825-2.716-6.773c-7.847-8.784-10.567-19.506-11.178-30.858c-0.393-7.31-0.097-14.653-0.072-21.981
		c0.004-1.166,0.017-2.338,0.29-3.479c0.406-1.694,1.063-3.385,3.129-3.261c1.951,0.117,2.102,1.938,2.221,3.396
		c0.354,4.321,0.138,8.656,0.101,12.984c-0.073,8.718,0.977,17.279,3.554,25.621c0.979,3.171,2.37,6.151,5.19,8.521
		c0.498-10.815,0.53-21.557,0.439-32.303c-0.077-0.883-0.053-1.761,0.026-2.642c-0.351-25.818,1.036-51.607,1.174-77.422
		c0.064-11.954,0.602-23.955,0.679-35.939c0.034-5.421-0.598-5.824-5.827-4.325c-14.369,4.121-29.103,3.517-43.689,2.575
		c-12.947-0.836-25.916-1.517-38.854-2.591c-4.375-0.363-8.643-0.918-12.418-3.294c-4.196-2.641-4.887-5.998-2.349-10.524
		c0.583-0.214,1.17-0.211,1.752,0.006c1.475,5.441,5.287,7.515,10.66,7.616c20.97,0.393,41.797,3.698,62.813,3.132
		c8.021-0.217,15.923-1.188,23.563-3.902c3.143-1.117,4.459-3.052,4.472-6.323c0.018-4.67-0.595-5.422-5.131-4.499
		c-8.165,1.66-16.297,3.486-24.614,4.23c-10.021,0.897-19.906,0.178-29.602-2.647c-0.442-0.489-0.5-1.021-0.177-1.597
		c3.031-1.981,6.458-1.303,9.699-1.192c16.924,0.573,33.395-2.097,49.629-6.55c2.774-0.77,4.688-1.998,2.868-5.282
		c-0.528-0.954-0.458-1.939,0.033-2.869c3.638-6.875,2.209-14.326,2.462-21.583c0.029-0.831,0.119-1.992-0.477-2.388
		c-4.99-3.312-1.967-8.547-3.147-12.753c-0.31-1.102-0.142-2.468,1.053-3.089c1.243-0.646,2.154,0.417,3.104,1.032
		c4.961,3.213,5.42,3.263,8.877-1.245c1.728-2.254,3.256-2.351,5.944-1.647c6.282,1.645,11.833,5.96,18.943,4.839
		c2.658-0.419,4.971,1.814,6.854,3.689c3.26,3.243,6.871,5.09,11.621,4.452c3.038-0.408,5.303,0.85,5.767,4.109
		c0.453,3.185,2.441,3.972,5.258,4.047c2.637,0.071,5.284,0.146,7.905,0.527c4.988,0.406,9.445,2.535,13.11,5.579
		c25.568,21.235,45.936,46.273,54.786,79.009c2.994,11.074,2.052,22.813,3.532,34.192c0.687,5.273,0.915,10.644,2.52,15.723
		c2.947,9.331,3.623,18.539-0.086,27.829c-0.729,1.827-0.939,3.861-1.389,5.8c-3.339,3.686-1.946,8.392-2.603,12.637
		C463.088,466.728,463.535,468.101,463.124,469.388z"/>
	<path fill-rule="evenodd" clip-rule="evenodd" fill="#050505" d="M317.893,609.894c2.707,1.425,4.295,1.12,4.145-2.453
		c-0.064-1.544-0.556-3.293,0.958-4.553c1.122-0.609,1.429,0.314,1.865,0.993c0.028,10.66,0.038,21.321,0.095,31.981
		c0.022,4.049-1.535,5.737-5.951,5.994c-41.251,2.401-72.071-15.9-95.878-48.06c-2.393-3.232-4.087-4.592-7.803-2.237
		c-2.352,1.49-5.216,2.148-7.756,3.375c-3.683,1.779-4.695,0.405-4.644-3.282c0.12-8.662-0.181-17.333,0.079-25.989
		c0.115-3.818-1.283-4.459-4.606-3.838c-13.072,2.443-26.163,4.783-39.256,7.108c-6.501,1.154-7.318,0.197-5.941-6.243
		c3.613-16.896,7.058-33.83,10.826-50.692c0.807-3.611,0.02-4.656-3.586-5.596c-19.459-5.067-38.827-10.489-58.199-15.889
		c-1.602-0.447-4.064-0.187-4.358-2.599c-0.274-2.249,1.945-2.895,3.368-3.899c16.722-11.808,33.417-23.656,50.265-35.282
		c3.25-2.242,3.269-3.271,0.309-5.921c-24.311-21.771-48.452-43.73-72.645-65.633c-0.986-0.893-2.038-1.725-2.937-2.696
		c-2.63-2.844-1.935-4.725,1.779-5.525c9.572-2.063,19.154-4.076,28.727-6.135c17.643-3.792,35.281-7.602,53.644-11.561
		c-7.862-9.646-15.247-18.789-22.721-27.859c-23.608-28.647-47.247-57.269-70.882-85.894c-1.053-1.274-2.645-2.513-1.698-4.309
		c1.023-1.943,3.118-1.627,4.94-1.398c36.628,4.599,73.253,9.22,109.88,13.828c5.779,0.727,11.59,1.247,17.335,2.183
		c3.5,0.569,4.231-0.563,3.74-3.844c-2.166-14.479-4.067-28.998-6.252-43.475c-4.963-32.879-10.028-65.744-15.093-98.608
		c-0.208-1.353-0.731-2.818,0.633-3.619c2.127-1.248,3.357,0.688,4.643,1.841c19.71,17.667,39.362,35.4,59.09,53.05
		c15.387,13.765,30.901,27.387,46.248,41.197c2.279,2.052,3.311,2.227,5.176-0.519c8.045-11.84,16.324-23.521,24.584-35.213
		c0.974-1.378,1.604-3.86,3.878-3.136c1.95,0.621,1.88,2.86,2.141,4.691c1.289,9.059,2.52,18.13,4.027,27.153
		c1.126,6.739,0.128,13.237-1.402,19.744c-4.164,17.701-2.874,35.771-3.601,53.703c-0.05,1.243,0.004,2.471,1.788,2.031
		c14.027-3.45,26.46,3.057,39.325,6.495c6.379,1.705,12.225,4.669,17.063,9.718c2.577,2.688,6.729,3.868,10.17,5.729
		c-3.615,1.461-7.413,0.569-11.117,0.773c-2.762,0.151-2.96-2.365-2.993-4.271c-0.063-3.624-2.143-4.727-5.112-4.062
		c-5.045,1.13-8.628-0.979-11.833-4.447c-3.205-3.468-7.249-4.564-11.768-3.741c-1.705,0.311-3.15,0.676-4.463-0.848
		c-2.865-3.33-7.929-1.787-10.996-4.908c-0.766-0.778-1.672,0.266-2.352,1.118c-5.787,7.258-5.806,7.243-12.962,1.252
		c-2.939,2.374,2.257,4.618-0.039,7.364c-2.372,2.838,0.099,4.684,2.569,6.066c0.24,0.135,0.448,0.565,0.447,0.857
		c-0.009,8.226,1.49,16.58-1.916,24.522c-0.414,0.965-1.729,1.442-0.455,2.865c3.09,3.452,0.832,5.25-2.342,6.614
		c-2.508-3.074-1.455-6.73-1.404-10.113c0.052-3.417-1.198-4.064-4.173-3.196c-4.798,1.401-9.631,2.664-14.641,3.118
		c-1.665,0.15-3.309,0.445-4.937-0.178c-7.019-2.018-14.024-1.966-21.021,0.094c-5.946,0.622-11.666,0.079-17.346-2.741
		c2.188-2.806,4.659-2.42,6.915-2.443c8.659-0.092,17.32-0.116,25.979-0.015c8.773,0.103,17.16-1.99,25.552-4.141
		c1.517-0.389,2.84-0.992,3.068-2.814c0.266-2.11-1.24-2.896-2.729-3.701c-1.254-1.07-3.07-1.576-3.516-3.465
		c0.086-0.138,0.152-0.379,0.265-0.403c6.585-1.437,6.71-6.24,6.527-11.658c-0.312-9.242,1.352-18.435,0.962-27.714
		c-0.306-7.288-0.904-7.954-8.217-6.702c-2.92,0.632-5.942,0.262-8.855,0.932c-19.056,1.368-36.194,8.055-51.954,18.643
		c-10.151,6.819-18.119,15.689-23.931,26.337c-10.041,18.397-16.295,38.188-20.569,58.646c-0.083,0.535-0.224,1.049-0.399,1.558
		c-2.474,16.143-2.753,32.477-4.404,48.678c-0.997,9.79-0.731,19.595-1.604,29.386c-1.107,12.423,0.496,24.938,1.105,37.379
		c1.115,22.766,3.829,45.445,7.785,67.896c4.654,26.419,11.101,52.536,29.984,72.903c17.084,18.426,37.213,32.313,63.448,34.359
		c1.84,0.144,3.631,0.477,5.3,1.285c5.664,4.295,5.664,4.295,10.268,0.095c2.401-1.232,2.169-3.427,2.12-5.603
		c-0.111-4.952-1.397-9.819-1.049-14.803C316.739,613.583,316.367,611.521,317.893,609.894z"/>
	<path fill-rule="evenodd" clip-rule="evenodd" fill="#070707" d="M324.86,603.881c-0.622-0.331-1.243-0.662-1.865-0.993
		c1.777-2.283,0.374-4.794,0.232-7.103c-0.143-2.329,0.054-4.207,1.624-5.9c9.291,1.199,18.27-1.087,27.074-3.23
		c36.395-8.862,63.643-30.154,82.154-62.521c6.25-10.926,9.727-22.936,10.604-35.604c0.344-4.97,1.239-9.894,1.093-14.911
		c-0.047-1.592-0.052-3.441,2.045-4.091c0.751,4.103,4.815-0.213,6.146,2.419c-0.881,1.441-1.589,2.993-1.576,4.681
		c0.094,13.407-1.852,26.468-7.001,39.27c11.867-3.875,19.438-13.902,19.336-24.761c-0.056-6-3.051-10.343-7.125-14.291
		c-1.459-1.414-3.922-2.188-3.657-4.92c2.897-1.456,5.758-3.079,9.206-2.007c0.298,2.828,1.221,5.283,2.923,7.716
		c13.08,18.691-3.011,42.489-17.784,45.869c-5.387,1.231-8.404,4.087-11.176,8.732c-21.861,36.64-53.188,59.619-96.093,65.499
		c-0.446-1.843,2.376-2.109,1.939-4.253c-1.564,1.23-1.871,3.062-2.956,4.327c-3.388,0.376-6.771,0.985-10.165,1.063
		C326.336,598.95,324.236,599.934,324.86,603.881z"/>
	<path fill-rule="evenodd" clip-rule="evenodd" fill="#161616" d="M450.889,532.292c-0.121-1.136-1.019-2.783,0.783-3.285
		c2.274-0.634,2.113,1.54,2.459,2.827c0.726,2.696,1.318,5.431,1.906,8.162c0.176,0.814,0.138,1.777-0.77,2.126
		c-1.116,0.431-1.992-0.173-2.224-1.269c-0.3-1.414-0.497-2.249-2.458-2.078c-4.035,0.353-6.104-2.474-5.374-6.771
		c0.168-0.984,0.252-2.066,1.567-2.11c1.295-0.042,1.568,0.957,1.707,1.982c0.044,0.326,0.002,0.662,0.031,0.99
		c0.097,1.063-0.402,2.792,1.246,2.654C451.541,535.373,451.291,533.736,450.889,532.292z"/>
	<path fill-rule="evenodd" clip-rule="evenodd" fill="#131313" d="M440.562,540.752c1.943,0,3.737-0.031,5.53,0.012
		c0.928,0.022,2.159-0.248,2.319,1.143c0.136,1.18-0.693,1.779-1.793,1.914c-3.334,0.409-6.98,1.886-9.354-1.896
		c-0.977-1.557,2.242-9.762,3.89-10.823c0.66-0.426,1.269-0.424,1.78,0.01c0.701,0.595,0.667,1.356,0.315,2.22
		C442.277,535.717,440.682,537.895,440.562,540.752z"/>
	<path fill-rule="evenodd" clip-rule="evenodd" fill="#070707" d="M463.124,469.388c-1.618-3.709-0.357-7.62-0.665-11.428
		c-0.159-1.971,0.23-4.781,3.418-5.074C464.96,458.386,464.042,463.887,463.124,469.388z"/>
	<path fill-rule="evenodd" clip-rule="evenodd" d="M340.003,597.809c0.232-1.127,0.36-2.29,0.728-3.372
		c0.39-1.148,0.171-2.94,2.094-2.866c1.012,0.039,1.896,0.66,2.058,1.835c0.2,1.462-0.216,2.615-1.681,3.244
		c-0.745,0.32-1.455,0.721-2.182,1.085C340.681,597.759,340.342,597.785,340.003,597.809z"/>
	<path fill-rule="evenodd" clip-rule="evenodd" fill="#FEFEFE" d="M447.821,469.528c-0.673,7.236-1.235,14.485-2.04,21.706
		c-2.165,19.404-10.377,36.096-22.46,51.262c-24.335,30.544-56.379,45.92-94.792,49.169c-1.578,0.134-3.452,0.883-3.678-1.779
		c0.064-13.483,0.264-26.968,0.104-40.448c-0.042-3.59,1.02-4.443,4.479-4.337c8.317,0.257,16.649,0.105,24.976,0.029
		c2.041-0.02,4.751,0.808,5.512-2.049c0.701-2.635,0.352-5.137-2.298-7.036c-8.439-6.048-17.615-10.128-28.118-9.992
		c-3.881,0.051-4.685-1.075-4.548-4.694c0.283-7.482,0.166-14.985,0.018-22.477c-0.05-2.517,0.569-4.189,2.634-5.897
		c6.158-5.095,6.031-13.069-0.304-17.825c-2.426-1.822-3.184-3.679-3.226-6.606c-0.066-4.635-0.206-9.406-1.336-13.859
		c-3.051-12.015-2.366-24.039-1.574-36.208c2.023-31.076,1.84-62.225,2.464-93.345c0.126-6.265,0.082-6.266,6.382-5.909
		c54.051,3.061,102.543,45.345,113.078,98.247C446.522,434.7,447.455,452.069,447.821,469.528z"/>
	<path fill-rule="evenodd" clip-rule="evenodd" fill="#FDFDFD" d="M292.997,302.795c7.163-0.242,14.021-2.141,20.875-3.971
		c3.442-0.919,4.719-0.063,4.38,3.653c-0.345,3.785-0.143,7.62-0.18,11.434c-15.538,4.586-31.344,7.333-47.608,7.032
		c-4.484-0.083-8.972,0-13.458,0.007c-2.325,1.749-4.816,0.263-7.213,0.293c-7.929,0.1-15.863,0.192-23.789-0.022
		c-4.506-0.122-8.48,0.897-12.015,3.665c-2.258,6.476-1.623,7.623,4.446,10.135c5.253,2.175,10.757,2.167,16.219,2.315
		c17.483,0.474,34.846,3.161,52.389,2.632c9.38-0.283,18.647-1.048,27.46-4.42c3.018-1.155,3.256-0.243,3.243,2.417
		c-0.147,30.653-0.48,61.302-1.474,91.942c-0.291,8.984-0.259,17.979-0.375,26.971c-5.372-1-4.67-5.356-4.618-8.971
		c0.096-6.807,0.271-13.615,0.362-20.424c0.028-2.097-0.214-4.169-1.613-6.948c-1.134,3.722,0.039,7.687-2.56,9.232
		c-5.348,3.183-4.642,4.541-0.286,8.683c3.742,3.559,3.092,10.087,1.015,15.196c-1.236,3.041-1.831,5.554,0.063,8.4
		c1.449,2.177,0.511,4.88,1.397,7.774c1.412-1.973,1.027-4.063,1.791-5.738c0.979-2.148,1.055-5.096,4.444-5.187
		c0,11.937,0,23.872,0,36.7c-3.807-2.317-5.319-5.337-6.685-8.379c-3.592-8.004-4.947-16.494-5.056-25.201
		c-0.074-5.993,0.042-11.988,0.011-17.982c-0.005-1.042,0.461-2.622-1.314-2.657c-1.107-0.022-1.695,1.012-1.664,2.104
		c0.409,14.563-1.831,29.334,3.3,43.527c1.422,3.934,3.141,7.972,6.302,10.628c4.396,3.692,4.868,8.142,4.541,13.259
		c-0.276,4.313-0.357,8.673-0.063,12.98c0.244,3.584-1.015,4.393-4.457,4.323c-20.643-0.415-40.774,2.233-59.869,10.667
		c-3.203,1.415-6.407,2.797-9.264,4.836c-1.126,0.804-3.142,1.458-2.261,3.269c0.952,1.956,2.581,0.561,3.896,0.06
		c9.785-3.732,19.642-7.25,29.599-10.513c3.287-1.076,4.793-0.212,6.263,2.554c3.949,7.435,9.717,13.053,17.536,16.327
		c3.233,1.354,4.689,3.567,5.438,6.98c2.07,9.446,4.269,18.947,12.939,25.029c1.348,0.946,0.872,2.378,0.994,3.656
		c0.6,6.277,1.208,12.553,1.813,18.829c-0.516,7.404,0.618,14.752,1.496,22.024c0.533,4.426-0.893,5.11-4.39,5.006
		c-3.013,2.063-6.012,1.86-9-0.055c-29.993-1.563-53.161-16.242-72.592-37.952c-12.448-13.909-18.218-31.107-23.27-48.58
		c-6.454-22.322-8.444-45.399-10.976-68.347c-4.955-44.906-2.545-89.717,2.636-134.448c0.188-1.624,0.737-3.207,1.117-4.809
		c4.817,2.494,4.126,7.042,4.22,11.709c3.371-7.512,9.707-7.254,16.02-6.651c3.784,0.361,6.016,2.613,6.163,6.603
		c0.093,2.498,0.135,4.996-0.038,7.491c-0.093,1.344-0.171,3.271-1.254,3.645c-6.344,2.193-6.685,10.039-12.585,12.718
		c0.939,1.564,2.356,1.215,3.534,1.221c8.662,0.046,17.435,0.896,25.954-0.227c8.608-1.134,17.15-1.842,25.797-1.834
		c1.354,0.001,2.769-0.297,3.587-1.462c3.669-5.22,9.209-3.722,14.197-3.913c2.418-0.093,3.609,2.082,4.845,3.892
		c0.463,0.679,1.161,1.354,2.051,0.593c0.735-0.629,0.794-1.692,0.166-2.223c-3.759-3.174-4.837-7.862-6.958-11.958
		c-0.231-0.445-0.487-1.125-0.881-1.157c-5.297-0.44-6.777-5.979-10.839-8.049c-1.054-0.537-2.158-1.286-2.447-2.401
		c-1.264-4.878-5.021-5.409-9.186-5.919c-11.91-1.455-23.783-2.28-35.807-1.188c-6.602,0.601-13.28,0.739-19.931,0.855
		c-2.308,0.04-4.698,0.008-6.624-1.66c5.494-26.734,12.519-53.126,31.053-74.058c17.26-19.493,40.093-28.976,65.981-31.074
		c1.592,4.459,0.121,7.783-4.319,9.232c-4.171,1.361-8.5,1.72-12.839,1.004c-4.08-0.674-7.512,0.458-10.665,3.034
		c-2.693,2.201-5.283,4.617-8.792,5.569c-0.815,0.221-1.744,0.693-1.959,1.443c-1.619,5.651-6.47,5.506-10.833,6.015
		c-2.856,0.334-5.207,1.001-6.144,4.085c-0.188,0.618,0.282,0.096-0.228,0.418c-5.014,3.171-7.866,8-10.347,13.152
		c-0.274,0.571,0.042-0.189-0.343,0.346c-4.372,6.078-7.306,13.015-11.24,19.382c-4.13,6.686,0.166,11.903,8.053,13.155
		c7.778,1.233,15.465,1.803,23.245,0.187c2.286-0.475,4.651-0.096,6.951,0.361c11.462,2.275,22.721,0.206,33.99-1.601
		c0.479-0.077,0.915-0.37,0.96-0.968c-5.33-1.69-10.552-3.127-16.329-1.433c-5.32,1.56-10.895,0.707-16.357,0.118
		c-4.11-0.442-12.624-8.188-13.438-12.223c-0.929-4.597,2.358-7.94,7.513-7.152c3.475,0.531,6.882,0.991,10.402,0.698
		c2.688-0.224,4.777-0.977,5.843-3.778c1.421-3.735,4.422-5.193,8.291-5.181c3.164,0.011,6.305-0.185,9.454-0.638
		c2.973-0.428,5.293-1.279,6.814-4.198c1.734-3.329,5.185-3.121,8.377-3.188c7.028-0.15,9.113-2.797,7.514-9.757
		c-0.493-2.143-1.182-4.328-0.416-6.384c2.221-5.965,0.574-11.791-0.066-17.714c-0.328-3.021-3.07-3.216-4.409-4.959
		c0.146-0.079,0.283-0.208,0.437-0.231c9.922-1.546,10.037-1.47,9.86,8.225c-0.201,11.087-0.685,22.177-0.56,33.26
		c0.047,4.151-0.886,6.182-5.257,5.991c-1.084-0.048-2.195,0.548-3.294,0.848c-7.958,3.673-16.283,5.084-24.063,4.562
		c5.025,0.898,10.819-0.246,16.652-1.505c3.468-0.749,6.901-2.523,10.605-1.004c1.647,0.901,5.019-2.438,5.182,2.04
		c0.115,3.161,0.7,5.635-4.194,7.023c-19.374,5.495-39.059,4.124-58.846,4.868c5.621,0.674,11.241,1.347,16.861,2.02
		C279,302.367,285.998,301.515,292.997,302.795z"/>
	<path fill-rule="evenodd" clip-rule="evenodd" fill="#FDFDFD" d="M257.009,321.805c19.205,3.457,38.141,1.803,56.831-3.277
		c3.19-0.867,4.313-0.896,4.229,2.968c-0.218,9.866-0.016,9.923-9.596,12.612c-13.384,3.759-27.074,2.935-40.697,2.321
		c-13.137-0.591-26.255-1.623-39.377-2.513c-2.486-0.168-4.979-0.451-7.43-0.898c-6.538-1.194-6.698-1.466-6.087-8.119
		c0.618-3.107,3.347-3.819,5.62-3.812C232.671,321.128,244.876,319.935,257.009,321.805z"/>
	<path fill-rule="evenodd" clip-rule="evenodd" fill="#FCFCFC" d="M315.005,579.652c-4.947-5.536-7.432-11.451-8.955-17.692
		c-1.109-4.547-3.42-7.477-7.529-9.775c-6.299-3.522-11.439-8.44-14.817-15.043c-1.115-2.18-1.268-3.178,1.553-3.564
		c8.722-1.195,17.43-2.388,26.263-2.421c2.413-0.009,3.572,0.458,3.547,3.276C314.936,549.2,315.005,563.968,315.005,579.652z"/>
	<path fill-rule="evenodd" clip-rule="evenodd" fill="#FEFEFE" d="M315.894,458.897c-3.098,2.553-3.605,6.118-3.942,9.803
		c-0.144,1.572-0.2,3.884-2.382,3.585c-1.74-0.239-2.213-2.179-1.815-4.04c0.622-2.919,0.165-5.462-2.036-7.803
		c-1.293-1.377-1.292-3.695-0.014-5.102c3.705-4.081,2.253-8.726,1.833-13.253c-0.264-2.843-1.396-5.09-4.79-5.247
		c-1.488-0.069-2.646-0.913-2.563-2.485c0.079-1.504,0.648-3.244,2.421-3.316c5.356-0.219,5.33-3.955,5.403-7.743
		c0.022-1.157,0.038-2.331,0.244-3.463c0.152-0.836,0.741-1.501,1.708-1.529c0.975-0.028,1.583,0.62,1.777,1.443
		c0.492,2.087,1.213,4.209,1.194,6.311c-0.067,7.556,0.108,15.112-0.575,22.673c-0.269,2.968,0.204,6.379,3.541,8.148
		C315.896,457.551,315.896,458.224,315.894,458.897z"/>
	<path fill-rule="evenodd" clip-rule="evenodd" fill="#F8F8F8" d="M340.763,541.669c-4.152,0-8.313-0.151-12.456,0.054
		c-2.654,0.132-3.305-0.786-3.35-3.372c-0.16-9.182,0.313-9.796,9.457-8.433c7.509,1.119,14.346,4.001,20.412,8.628
		c0.793,0.604,1.836,1.188,1.484,2.302c-0.387,1.222-1.661,0.824-2.594,0.832c-4.318,0.035-8.636,0.016-12.954,0.016
		C340.763,541.687,340.763,541.678,340.763,541.669z"/>
	<path fill-rule="evenodd" clip-rule="evenodd" fill="#141414" d="M257.009,321.805c-11.095-0.082-22.188-0.235-33.283-0.204
		c-3.259,0.01-6.747-0.067-8.845,3.298l-0.446,0.019l-0.446-0.031c0.834-3.854,4.059-4.938,7.123-4.951
		c11.969-0.051,23.969-0.635,35.894,1.016C257.016,321.236,257.017,321.521,257.009,321.805z"/>
	<path fill-rule="evenodd" clip-rule="evenodd" fill="#E4E4E4" d="M325.092,490.499c-0.257-5.556-0.473-10.236-0.693-15.031
		C329.649,478.173,330.137,484.249,325.092,490.499z"/>
	<path fill-rule="evenodd" clip-rule="evenodd" fill="#FEFEFE" d="M109.083,483.879c13.364-8.219,26.033-16.014,38.706-23.803
		c4.817-2.961,9.654-5.892,14.461-8.87c4.866-3.018,5.002-3.859,0.733-7.54c-15.508-13.373-31.073-26.679-46.611-40.019
		c-11.729-10.069-23.448-20.15-35.869-30.826c9.472-1.649,18.083-3.197,26.712-4.642c19-3.182,38.011-6.297,57.013-9.471
		c5.262-0.879,5.525-1.832,2.255-6.123c-28.556-37.474-57.08-74.972-85.603-112.471c-0.476-0.625-1.244-1.162-0.848-2.589
		c11.089,1.571,22.249,3.127,33.4,4.735c28.98,4.181,57.954,8.4,86.936,12.563c5.573,0.8,6.37-0.074,5.503-5.914
		c-6.749-45.462-10.832-91.252-16.785-136.812c-0.078-0.593-0.01-1.204-0.01-2.818c10.009,9.276,19.39,17.917,28.712,26.621
		c23.494,21.937,47.005,43.854,70.384,65.911c3.211,3.03,4.727,1.91,7.021-0.975c7.717-9.705,15.693-19.204,24.54-29.96
		c0,3.313,0.021,5.061-0.003,6.809c-0.226,16.16-0.591,32.32-0.592,48.481c-0.001,3.808-0.831,4.852-4.832,4.909
		c-23.189,0.334-45.064,5.664-65.067,17.877c-20.387,12.446-31.824,31.442-40.304,53.02c-11.131,28.326-14.516,57.884-16.221,87.948
		c-1.285,22.654-2.032,45.254-0.616,67.898c0.169,2.706-0.438,3.953-3.271,4.854c-23.744,7.555-22.323,37.893-9.837,49.13
		c4.786,4.308,10.1,7.709,16.465,8.879c2.625,0.481,3.628,1.425,3.956,4.007c1.236,9.756,3.043,19.408,6.295,28.725
		c0.816,2.339,0.198,3.23-2.304,3.55c-14.356,1.828-28.702,3.747-43.035,5.749c-3.942,0.551-2.563-1.81-2.123-3.559
		c3.649-14.493,7.324-28.979,11.041-43.455c3.053-11.89,3.121-11.998-8.618-15.718c-15.21-4.819-30.488-9.425-45.732-14.136
		C113.239,485.322,111.567,484.716,109.083,483.879z"/>
	<path fill-rule="evenodd" clip-rule="evenodd" fill="#FEFEFE" d="M308.618,236.712c4.578-0.203,5.186,1.71,5.991,6.359
		c1.121,6.472,0.555,12.295-0.434,18.509c-0.526,3.312,2.175,6.565,0.928,10.421c-1.043,3.226-1.929,5.469-5.887,4.939
		c-2.126-0.284-4.322-0.009-6.485-0.056c-1.622-0.035-3.534,0.4-3.798,1.826c-1.404,7.569-7.892,4.695-12.215,6.088
		c-1.659,0.534-3.637,0.154-5.465,0.078c-4.056-0.171-6.897,1.296-7.222,5.668c-0.175,2.363-1.992,2.818-3.423,2.881
		c-4.144,0.179-8.215,1.799-12.527-0.152c-2.157-0.978-5.332-1.439-7.058,1.653c-1.659,2.974-0.67,5.352,1.737,7.396
		c0.76,0.646,1.623,1.245,2.177,2.046c5.096,7.365,12.594,6.189,19.925,5.727c3.647-0.229,7.291-0.307,10.712-1.893
		c1.071-0.497,2.322-0.476,3.233,0.531c1.779,1.967,3.765,2.379,6.275,1.368c1.323-0.533,2.661-0.125,2.862,1.733
		c0.182,1.687-0.232,3.31-2.068,3.359c-5.207,0.142-10.569,2.462-15.011,2.336c-6.354-0.181-13.073,1.469-19.361-0.757
		c-7.098-2.511-13.979,1.213-21.023,0.491c-5.842-0.599-11.78-0.997-17.245-3.055c-4.072-1.534-5.446-12.936-1.362-16.175
		c4.871-3.862,6.171-8.937,7.938-14.089c0.524-1.525,1.088-2.767,2.812-3.106c0.318-0.063,0.889-0.248,0.884-0.356
		c-0.338-7.641,8.15-9.178,10.299-14.965c0.724-1.948,1.492-2.571,3.426-2.673c3.129-0.164,6.244-0.618,9.358-1.004
		c0.627-0.078,1.761-0.402,1.758-0.6c-0.115-7.655,8.027-5.964,11.311-9.973c3.736-4.562,8.989-6.212,15.153-4.482
		c3.553,0.997,7.316-0.17,10.794-1.1c3.857-1.031,4.537-4.43,4.326-8.004C302.722,236.403,305.688,236.71,308.618,236.712z"/>
	<path fill-rule="evenodd" clip-rule="evenodd" fill="#FDFDFD" d="M197.924,516.334c-11.551-1.438-20.708-9.915-22.749-20.846
		c-2.296-12.308,2.012-22.44,11.605-27.298c5.424-2.746,5.668-2.55,6.162,3.572c1.095,13.602,2.531,27.165,4.743,40.639
		C197.895,513.676,197.849,514.992,197.924,516.334z"/>
	<path fill-rule="evenodd" clip-rule="evenodd" fill="#F2F2F2" d="M206.808,591.243c0.631-8.87,1.212-17.021,1.792-25.174
		c3.482,6.104,5.451,12.656,8.864,18.554c0.698,1.205,0.696,1.944-0.924,2.526C213.48,588.247,210.532,589.654,206.808,591.243z"/>
	<path fill-rule="evenodd" clip-rule="evenodd" d="M312.999,286.857c-9.754,1.785-19.286,6.287-30.453,2.147
		c9.898-0.183,18.41-3.185,27.259-4.2C311.195,284.981,312.861,284.73,312.999,286.857z"/>
	<path fill-rule="evenodd" clip-rule="evenodd" d="M292.997,302.795c-6.997,0.639-13.995,1.536-20.995,0.013
		C274.841,300.051,290.165,300.042,292.997,302.795z"/>
	<path fill-rule="evenodd" clip-rule="evenodd" d="M323.991,622.713c0.002,1.167,0.041,2.335-0.009,3.499
		c-0.06,1.43,0.424,3.16-1.673,3.637c-0.6,0.137-1.655,0.342-1.795,0.103c-1.061-1.817,0.718-2.61,1.575-3.679
		c1.984-2.474-0.629-4.745-0.239-7.177c0.166-1.033-0.853-2.563,0.979-2.681c1.352-0.086,1.111,1.365,1.147,2.299
		C324.028,620.046,323.99,621.38,323.991,622.713z"/>
	<path fill-rule="evenodd" clip-rule="evenodd" d="M305.999,636.87c3,0.019,6,0.036,9,0.055c-0.249,2.197-1.488,3.759-3.636,3.827
		C308.789,640.833,306.852,639.458,305.999,636.87z"/>
	<path fill-rule="evenodd" clip-rule="evenodd" fill="#FBFBFB" d="M453.943,471.925c1.633,1.373,3.342,2.666,4.888,4.131
		c9.914,9.403,9.831,22.676-0.104,33.264c-4.189,4.464-9.694,6.666-16.067,10.102c6.73-15.022,8.296-29.766,8.745-44.709
		c0.049-1.64-0.22-3.631,2.562-2.766L453.943,471.925z"/>
	<path fill-rule="evenodd" clip-rule="evenodd" fill="#060606" d="M371.627,476.486c-16.258-1.203-33.186-6.054-42.016-23.501
		c-8.674-17.14-7.609-35.099,1.551-52.186c7.15-13.34,18.153-22.68,33.026-25.074c30.764-4.953,57.072,11.169,61.297,39.347
		C431.388,454.447,405.669,474.977,371.627,476.486z"/>
	<path fill-rule="evenodd" clip-rule="evenodd" fill="#060606" d="M357.594,352.462c14.644,1.995,29.137,4.615,42.686,10.891
		c1.689,0.782,3.447,1.959,2.506,4.186c-0.994,2.352-3.045,1.525-4.744,0.894c-7.622-2.834-15.234-5.688-23.187-7.498
		c-6.226-1.417-12.548-1.097-18.855-1.038c-2.578,0.024-5.639,0.961-5.807-3.292c-0.16-4.029,2.648-3.948,5.411-3.983
		C356.268,352.612,356.931,352.517,357.594,352.462z"/>
	<path fill-rule="evenodd" clip-rule="evenodd" fill="#FEFEFE" d="M232.327,471.124c6.038-0.405,12.073-1.092,18.114-1.137
		c5.922-0.044,11.85,0.566,17.774,0.887c3.226,0.174,5.778-0.182,8.222-3.233c2.251-2.812,6.278-4.166,10.085-4.705
		c3.671-0.521,5.946-1.958,5.494-6.083c-0.149-1.368,0.376-2.509,1.177-3.686c2.971-4.366,1.15-7.787-4.252-8.288
		c-1.532-0.142-3.875,0.73-4.154-1.49c-0.207-1.636,1.802-2.605,3.209-3.485c2.281-1.426,4.829-1.092,7.301-0.916
		c2.075,0.148,2.623,1.569,2.622,3.512c-0.005,15.852,0.056,31.703,0.077,47.555c0.002,1.38,0.092,3.332,1.123,3.663
		c8.646,2.777,7.238,11.935,11.23,17.662c3.838,5.506-1.487,13.559-8.192,13.479c-4.631-0.054-9.32,0.653-13.878-0.876
		c-0.754-0.253-1.809-0.372-2.463-0.039c-7.016,3.566-14.302,0.103-21.425,0.885c-3.022,0.333-5.615,0.92-6.84,3.997
		c-1.308,3.288-3.705,4.434-7.116,4.084c-4.872-0.499-9.405-0.14-11.645,5.292c-0.301,0.729-0.938,1.479-1.937,1.118
		c-1.006-0.364-0.82-1.351-0.831-2.14c-0.041-2.832-0.018-5.664-0.031-8.497c-0.016-3.045-1.324-5.19-4.462-5.68
		c-3.413-0.533-3.742,2.41-4.17,4.497c-0.636,3.099-1.709,5.043-5.212,5.613c-4.044,0.659-4.021,4.082-4.239,7.397
		c-0.157,2.395,1.753,6.419-1.494,6.873c-3.439,0.481-3.906-3.806-4.889-6.542c-0.33-0.917-0.726-2.058-0.464-2.901
		c2.475-7.987-1.468-16.127,0.697-24.148c0.65-2.406-0.19-4.76-3.392-4.891c-3.003-0.123-3.673-2.07-3.329-4.442
		c1.415-9.754-1.595-19.215-1.777-28.79c-0.167-8.796-1.928-17.74,0.658-26.52c0.738-2.507-0.482-4.97-1.016-7.333
		c-1.626-7.186,1.615-14.256,0.155-21.389c-0.199-0.973,0.039-2.237,1.317-2.287c1.733-0.068,3.389,0.676,4.158,2.254
		c0.713,1.46,1.2,3.15,1.293,4.769c0.17,2.956,0.979,5.21,4.212,5.899c0.459,0.098,1.138,0.4,1.242,0.748
		c2.504,8.435,11.18,6.805,16.604,10.377c9.384,6.18,19.319,4.308,29.452,4.078c5.367-0.121,10.896,0.487,16.357,0.654
		c1.058,0.032,2.033,0.287,2.07,1.601c0.032,1.159-0.726,2.063-1.726,2.127c-3.033,0.197-5.418,2.622-8.606,2.313
		c-0.888-0.087-2.171,0.26-2.723,0.89c-5.729,6.545-13.428,3.389-20.304,4.405c-5.309,0.785-9.323,0.771-12.893-4.542
		c-1.423-2.118-6.729-1.883-10.398-1.821c-2.274,0.038-4.571,0.332-3.29-3.365c0.616-1.775-0.576-3.938-2.396-3.394
		c-2.381,0.713-6.217-1.544-6.973,1.655c-0.961,4.069-1.464,8.612,0.911,12.619c0.556,0.938,1.612,2.093,2.547,2.2
		c3.708,0.428,4.912,2.457,5.321,5.969c0.338,2.907,3.464,2.816,5.598,3.172c2.431,0.405,4.981,0.094,7.48,0.094
		C232.317,470.935,232.322,471.03,232.327,471.124z"/>
	<path fill-rule="evenodd" clip-rule="evenodd" fill="#FEFEFE" d="M308.844,630.891c-8.043-0.912-16.064-2.194-24.21-2.037
		c-0.632,0.013-1.609-0.068-1.854-0.462c-3.754-6.036-12.38-6.505-15.295-13.771c-1.048-2.612-4.756-1.583-7.372-1.749
		c-3.234-0.205-7.587,1.057-6.837-4.862c0.044-0.345-0.501-1.026-0.88-1.122c-5.202-1.314-6.268-7.066-9.828-9.518
		c-7.992-5.502-11.761-13.006-15.269-21.611c-1.489-3.649-4.403-7.281-6.003-11.295c-0.453-1.135-1.945-2.469-0.453-3.547
		c1.535-1.11,3.932-0.25,4.382,0.952c3.171,8.456,10.05,4.181,15.227,4.221c3.773,0.03,3.475-4.502,3.256-7.147
		c-0.354-4.286,1.446-7.401,5.78-8.049c2.123-0.317,4.229-0.764,6.36-0.995c1.706-0.186,2.758-0.877,3.118-2.633
		c1.436-6.999,7.058-3.719,10.993-4.305c3.929-0.585,4.027,2.341,4.134,5.188c0.077,2.083,1.603,2.82,3.477,2.712
		c3.18-0.186,4.635,1.177,4.459,4.405c-0.155,2.881,1.605,3.647,4.16,3.649c2.472,0.002,4.909,0.152,7.403,0.58
		c5.019,0.86,5.735,4.181,4.951,7.982c-0.688,3.345-0.509,6.622-0.468,9.917c0.031,2.563,1.66,3.967,3.754,5.739
		c3.785,3.204,6.812,7.281,10.586,10.702c2.437,2.209,1.197,9.184,0.044,13.91c-0.529,2.171-0.35,4.008,0.879,5.657
		c3.697,4.97,2.319,9.95,0.358,15.035C312.775,630.83,310.978,631.083,308.844,630.891z"/>
	<path fill-rule="evenodd" clip-rule="evenodd" fill="#FEFEFE" d="M202.9,342.817c12.469,0.244,24.866-0.62,37.303-1.546
		c7.971-0.593,16.133,1.07,24.177,1.997c1.793,0.206,3.578,0.594,5.408,0.638c0.822,0.02,2.22-0.059,2.374,0.314
		c2.075,5.001,6.72,7.824,9.803,11.929c0.656,0.874,0.909,2.628,2.038,2.479c7.495-0.993,6.376,5.985,8.737,9.546
		c0.956,1.443,0.965,3.313,3.155,3.887c2.325,0.609,2.254,2.631,1.982,4.501c-0.256,1.757-1.665,2.592-3.182,2.704
		c-2.162,0.16-2.583-1.525-2.907-3.292c-0.135-0.737-0.748-1.499-1.344-2.022c-2.603-2.291-12.763-0.569-14.42,2.624
		c-0.942,1.814-2.154,2.354-3.949,2.313c-17.919-0.423-35.675,3.477-53.634,2.013c-0.994-0.081-2,0.013-2.999-0.029
		c-1.367-0.057-2.84-0.188-3.016-1.915c-0.146-1.437,1.149-2.02,2.226-2.322c3.619-1.016,5.841-2.868,5.47-7.062
		c-0.155-1.741,1.255-2.614,2.987-2.65c3.986-0.082,5.096-2.485,4.894-5.982c-0.029-0.498,0.084-1.019-0.018-1.497
		c-0.687-3.206,1.928-7.422-2.193-9.519c-4.588-2.334-9.435-1.011-14.084,0.317c-1.775,0.508-1.589,2.283-1.759,3.78
		c-0.201,1.767-1.081,3.607-2.965,3.283c-1.836-0.315-2.436-2.652-1.86-4.078c1.668-4.135,0.011-7.314-2.209-10.492L202.9,342.817z"
		/>
	<path fill-rule="evenodd" clip-rule="evenodd" fill="#050505" d="M310.095,387.4c0.548,20.279-6.078,37.178-23.738,47.762
		c-26.884,16.111-59.223,6.917-73.501-18.707c-6.926-12.428-11.112-25.247-7.747-39.654c1.823-7.806,5.698-14.532,10.622-20.688
		c1.199-1.499,2.809-4.231,5.179-2.126c2.246,1.994-0.379,3.594-1.576,4.897c-7.273,7.927-10.025,17.43-10.256,27.939
		c-0.058,2.655,0.415,3.519,3.336,2.789c19.818-4.952,40.012-6.284,60.381-6.651c7.587-0.136,15.127-1.94,22.693,0.249
		c0.761,0.22,1.66,0.017,2.487-0.063c7.863-0.764,9.273-2.867,6.34-10.198c-4.416-11.034-11.533-19.764-22.365-25.14
		c-1.413-0.701-3.823-1.047-2.863-3.218c0.83-1.879,2.987-0.79,4.443-0.362c13.05,3.832,20.151,13.466,24.442,25.624
		C309.988,375.563,310.432,381.564,310.095,387.4z"/>
	<path fill-rule="evenodd" clip-rule="evenodd" fill="#0D0D0D" d="M218.29,455.13c24.278,12.702,47.76,12.712,70.278-4.317
		c-8.404,10.396-20.601,16.042-34.122,16.138C236.329,467.08,233.197,466.084,218.29,455.13z"/>
	<path fill-rule="evenodd" clip-rule="evenodd" fill="#FEFEFE" d="M314,351.016c-0.065,2.296,0.37,4.672-0.964,6.774
		c-0.746,1.176-0.881,3.105-2.9,2.876c-1.786-0.204-2.462-1.831-2.71-3.203c-0.702-3.877,0.17-8.437-5.521-9.543
		c-1.086-0.211-1.061-2.004-0.68-3.121c0.437-1.283,1.31-2.348,2.76-2.575C310.981,341.129,314.002,343.796,314,351.016z"/>
	<path fill-rule="evenodd" clip-rule="evenodd" fill="#141414" d="M230.082,536.016c-0.231,0.793-0.451,1.589-0.697,2.377
		c-3.463,11.089-2.5,14.178,6.709,21.373c1.259,0.983,2.571,1.899,4.613,3.4c-14.8-4.615-19.765-11.917-14.1-23.809
		c0.855-1.795,1.765-3.563,2.649-5.344C230.978,534.085,230.445,535.086,230.082,536.016z"/>
	<path fill-rule="evenodd" clip-rule="evenodd" fill="#FEFEFE" d="M311.744,304.886c1.218,0.138,2.931-0.333,3.007,1.561
		c0.073,1.851-1.391,2.394-3.002,2.408c-1.482,0.012-3.273-0.001-3.282-1.96C308.458,304.919,310.285,304.991,311.744,304.886z"/>
	<path fill-rule="evenodd" clip-rule="evenodd" fill="#484848" d="M230.082,536.016c-0.275-0.667-0.551-1.334-0.826-2.002
		c0.811-1.846,1.128-3.983,3.43-5.789C232.79,531.623,231.15,533.73,230.082,536.016z"/>
	<path fill-rule="evenodd" clip-rule="evenodd" fill="#FEFEFE" d="M374.752,470.962c-9.6,0.204-18.807-1.031-27.447-5.849
		c-12.91-7.196-19.264-17.62-18.479-32.616c0.968-18.485,5.494-34.568,21.63-46.452c19.057-14.036,52.889-7.224,64.354,15.479
		c6.667,13.2,7.978,27.046,3.926,41.239c-4.17,14.605-20.638,27.353-35.991,28.179C380.088,471.085,377.417,470.962,374.752,470.962
		z"/>
	<path fill-rule="evenodd" clip-rule="evenodd" fill="#FEFEFE" d="M285.121,387.195c5.987,0,11.974,0.021,17.961-0.011
		c2.386-0.012,3.386,0.68,3.409,3.47c0.213,25.999-19.416,45.915-45.451,46.162c-8.255,0.079-16.119-1.293-23.923-3.924
		c-16.803-5.666-23.298-19.106-26.992-34.836c-0.528-2.248,0.544-2.813,2.485-3.277c9.705-2.317,19.483-4.222,29.325-5.854
		c2.249-0.373,3.317,0.328,4.181,2.32c1.252,2.89,2.729,5.688,4.229,8.461c1.01,1.869,1.448,5.352,4.651,3.519
		c2.851-1.633,7.54-2.018,6.865-7.225c-0.961-7.411,0.495-9.151,7.785-9.239c5.158-0.062,10.317-0.012,15.476-0.012
		C285.121,386.898,285.121,387.046,285.121,387.195z"/>
	<path fill-rule="evenodd" clip-rule="evenodd" fill="#111111" d="M377.256,424.509c2.231-0.771,5.95-3.088,5.919,2.102
		c-0.015,2.396-0.976,5.718-4.113,6.747c-1.446,0.475-7.029-4.922-6.832-6.546C372.57,423.999,374.248,423.212,377.256,424.509z"/>
</g>
</svg>
